<svg width="90" height="20" viewBox="0 0 90 20" fill="none" xmlns="http://www.w3.org/2000/svg">
<path d="M29.372 15V4.78H31.052V15H29.372ZM30.772 15V13.502H35.322V15H30.772ZM37.2516 15V7.454H38.8896V15H37.2516ZM36.1456 8.714V7.454H38.8896V8.714H36.1456ZM37.7836 6.404C37.4476 6.404 37.1956 6.31533 37.0276 6.138C36.8689 5.96067 36.7896 5.732 36.7896 5.452C36.7896 5.18133 36.8689 4.95733 37.0276 4.78C37.1956 4.59333 37.4476 4.5 37.7836 4.5C38.1289 4.5 38.3809 4.59333 38.5396 4.78C38.7076 4.95733 38.7916 5.18133 38.7916 5.452C38.7916 5.732 38.7076 5.96067 38.5396 6.138C38.3809 6.31533 38.1289 6.404 37.7836 6.404ZM41.331 15V7.454H42.633V10.688H42.479C42.479 9.94133 42.577 9.31133 42.773 8.798C42.9783 8.28467 43.2863 7.89733 43.697 7.636C44.1076 7.36533 44.6163 7.23 45.223 7.23H45.293C46.2263 7.23 46.9216 7.524 47.379 8.112C47.8363 8.7 48.065 9.55867 48.065 10.688V15H46.427V10.464C46.427 9.94133 46.2776 9.52133 45.979 9.204C45.6803 8.87733 45.2696 8.714 44.747 8.714C44.215 8.714 43.7856 8.882 43.459 9.218C43.1323 9.54467 42.969 9.98333 42.969 10.534V15H41.331ZM55.5767 15L52.8887 11.486H51.7127L55.0307 7.454H56.7667L53.7147 11.122L53.7847 10.282L57.4527 15H55.5767ZM50.3407 15V4.78H51.9787V15H50.3407ZM61.7518 15.252C61.0985 15.252 60.5291 15.14 60.0438 14.916C59.5585 14.692 59.1618 14.398 58.8538 14.034C58.5458 13.6607 58.3125 13.2453 58.1538 12.788C58.0045 12.3213 57.9298 11.8453 57.9298 11.36V11.094C57.9298 10.5993 58.0045 10.1233 58.1538 9.666C58.3125 9.19933 58.5458 8.784 58.8538 8.42C59.1618 8.04667 59.5491 7.75267 60.0158 7.538C60.4918 7.314 61.0425 7.202 61.6678 7.202C62.4798 7.202 63.1565 7.37933 63.6978 7.734C64.2391 8.08867 64.6451 8.55067 64.9158 9.12C65.1865 9.68 65.3218 10.2867 65.3218 10.94V11.598H58.6298V10.492H64.2158L63.7678 11.052C63.7678 10.548 63.6885 10.114 63.5298 9.75C63.3711 9.37667 63.1378 9.092 62.8298 8.896C62.5218 8.69067 62.1345 8.588 61.6678 8.588C61.1825 8.588 60.7765 8.7 60.4498 8.924C60.1231 9.148 59.8805 9.456 59.7218 9.848C59.5631 10.24 59.4838 10.702 59.4838 11.234C59.4838 11.738 59.5631 12.1907 59.7218 12.592C59.8805 12.984 60.1278 13.2967 60.4638 13.53C60.7998 13.754 61.2291 13.866 61.7518 13.866C62.2745 13.866 62.7038 13.754 63.0398 13.53C63.3758 13.2967 63.5811 13.026 63.6558 12.718H65.1818C65.0791 13.2313 64.8691 13.6793 64.5518 14.062C64.2438 14.4447 63.8518 14.7387 63.3758 14.944C62.8998 15.1493 62.3585 15.252 61.7518 15.252ZM70.2248 15.252C69.6834 15.252 69.1888 15.154 68.7408 14.958C68.3021 14.762 67.9148 14.4867 67.5788 14.132C67.2521 13.7773 67.0001 13.3667 66.8228 12.9C66.6454 12.4333 66.5568 11.9247 66.5568 11.374V11.108C66.5568 10.5667 66.6408 10.0627 66.8088 9.596C66.9861 9.12 67.2334 8.70467 67.5508 8.35C67.8681 7.99533 68.2461 7.72 68.6848 7.524C69.1328 7.31867 69.6274 7.216 70.1688 7.216C70.7474 7.216 71.2654 7.342 71.7228 7.594C72.1894 7.83667 72.5628 8.21467 72.8428 8.728C73.1321 9.232 73.2908 9.876 73.3188 10.66L72.7588 9.89V4.78H74.3968V15H73.0948V11.724H73.4588C73.4308 12.536 73.2628 13.2033 72.9548 13.726C72.6561 14.2487 72.2688 14.636 71.7928 14.888C71.3168 15.1307 70.7941 15.252 70.2248 15.252ZM70.5328 13.838C70.9528 13.838 71.3308 13.7447 71.6668 13.558C72.0121 13.3713 72.2874 13.1007 72.4928 12.746C72.7074 12.382 72.8148 11.9573 72.8148 11.472V10.87C72.8148 10.394 72.7074 9.988 72.4928 9.652C72.2781 9.316 71.9981 9.05933 71.6528 8.882C71.3074 8.70467 70.9294 8.616 70.5188 8.616C70.0614 8.616 69.6554 8.728 69.3008 8.952C68.9554 9.16667 68.6848 9.47 68.4888 9.862C68.2928 10.254 68.1948 10.7113 68.1948 11.234C68.1948 11.766 68.2928 12.228 68.4888 12.62C68.6941 13.012 68.9741 13.3153 69.3288 13.53C69.6834 13.7353 70.0848 13.838 70.5328 13.838ZM77.1735 15V7.454H78.8115V15H77.1735ZM76.0675 8.714V7.454H78.8115V8.714H76.0675ZM77.7055 6.404C77.3695 6.404 77.1175 6.31533 76.9495 6.138C76.7908 5.96067 76.7115 5.732 76.7115 5.452C76.7115 5.18133 76.7908 4.95733 76.9495 4.78C77.1175 4.59333 77.3695 4.5 77.7055 4.5C78.0508 4.5 78.3028 4.59333 78.4615 4.78C78.6295 4.95733 78.7135 5.18133 78.7135 5.452C78.7135 5.732 78.6295 5.96067 78.4615 6.138C78.3028 6.31533 78.0508 6.404 77.7055 6.404ZM81.2528 15V7.454H82.5548V10.688H82.4008C82.4008 9.94133 82.4988 9.31133 82.6948 8.798C82.9002 8.28467 83.2082 7.89733 83.6188 7.636C84.0295 7.36533 84.5382 7.23 85.1448 7.23H85.2148C86.1482 7.23 86.8435 7.524 87.3008 8.112C87.7582 8.7 87.9868 9.55867 87.9868 10.688V15H86.3488V10.464C86.3488 9.94133 86.1995 9.52133 85.9008 9.204C85.6022 8.87733 85.1915 8.714 84.6688 8.714C84.1368 8.714 83.7075 8.882 83.3808 9.218C83.0542 9.54467 82.8908 9.98333 82.8908 10.534V15H81.2528Z" fill="white"/>
<path d="M4.1525 5.9975C5.1595 5.9975 5.97583 5.18116 5.97583 4.17416C5.97583 3.16716 5.1595 2.35083 4.1525 2.35083C3.1455 2.35083 2.32916 3.16716 2.32916 4.17416C2.32916 5.18116 3.1455 5.9975 4.1525 5.9975Z" fill="white"/>
<path d="M7.6975 7.37915V17.495H10.8383V12.4925C10.8383 11.1725 11.0867 9.89415 12.7233 9.89415C14.3375 9.89415 14.3575 11.4033 14.3575 12.5758V17.4958H17.5V11.9483C17.5 9.22332 16.9133 7.12915 13.7283 7.12915C12.1992 7.12915 11.1742 7.96832 10.755 8.76248H10.7125V7.37915H7.6975ZM2.57916 7.37915H5.725V17.495H2.57916V7.37915Z" fill="white"/>
</svg>
