<svg width="48" height="48" viewBox="0 0 48 48" fill="none" xmlns="http://www.w3.org/2000/svg">
<rect width="48" height="48" rx="24" fill="#E4EFFD"/>
<path d="M33.3333 28V13.3333C33.3324 13.1331 33.2863 12.9356 33.1986 12.7555C33.1109 12.5755 32.9838 12.4175 32.8266 12.2933C32.6717 12.168 32.4907 12.079 32.2969 12.0329C32.1031 11.9867 31.9014 11.9846 31.7066 12.0267L19.7066 14.6933C19.4104 14.7601 19.1458 14.9261 18.9567 15.1637C18.7676 15.4013 18.6653 15.6963 18.6666 16V27.12C17.7564 26.6903 16.7314 26.5673 15.7453 26.7695C14.7593 26.9717 13.8654 27.4881 13.1977 28.2414C12.5301 28.9947 12.1247 29.9441 12.0423 30.9473C11.96 31.9505 12.2051 32.9533 12.741 33.8054C13.2769 34.6574 14.0746 35.3127 15.0145 35.673C15.9544 36.0333 16.9857 36.0791 17.9538 35.8036C18.9219 35.5281 19.7746 34.946 20.3839 34.1449C20.9933 33.3437 21.3264 32.3665 21.3333 31.36C21.3471 31.1291 21.3471 30.8976 21.3333 30.6667V17.0667L30.6666 15V24.4533C29.7559 24.0234 28.7302 23.9005 27.7437 24.1031C26.7572 24.3058 25.863 24.823 25.1955 25.5772C24.528 26.3313 24.1232 27.2817 24.0419 28.2855C23.9605 29.2894 24.2071 30.2925 24.7445 31.1443C25.2819 31.996 26.0811 32.6505 27.0222 33.0093C27.9632 33.3681 28.9953 33.4119 29.9633 33.1341C30.9314 32.8564 31.7832 32.2721 32.3909 31.4689C32.9986 30.6657 33.3292 29.6871 33.3333 28.68C33.346 28.4535 33.346 28.2265 33.3333 28V28Z" fill="#0153B6"/>
</svg>
